<svg width="58" height="58" viewBox="0 0 58 58" fill="none" xmlns="http://www.w3.org/2000/svg">
<path fill-rule="evenodd" clip-rule="evenodd" d="M28.7378 57.7693C37.2968 57.7693 44.9864 54.0466 50.2756 48.132C47.8152 45.9936 44.1073 45.8637 41.4879 47.9773L40.9875 48.3811C36.1915 52.251 29.2032 51.6795 25.0997 47.0818C22.8616 44.5742 19.0287 44.3182 16.477 46.5058L10.7074 51.4521C15.649 55.4054 21.9173 57.7693 28.7378 57.7693ZM38.103 43.7824C42.6711 40.0963 49.0919 40.2285 53.4854 43.7886C56.1115 39.4374 57.6224 34.3375 57.6224 28.8846C57.6224 22.8256 55.7569 17.2024 52.5688 12.5579C50.5136 12.1202 48.2859 12.6314 46.5949 14.1299L46.1136 14.5564C41.5013 18.6436 34.4941 18.3952 30.1828 13.9918C27.8314 11.5902 23.9907 11.5113 21.5427 13.8144L14.8286 20.1309L11.1351 16.205L17.8492 9.88847C22.4349 5.57423 29.6295 5.72196 34.0343 10.2208C36.3358 12.5715 40.0765 12.7041 42.5387 10.5222L43.0199 10.0957C44.5145 8.77127 46.2438 7.8784 48.0542 7.40881C42.9369 2.803 36.1647 0 28.7378 0C14.0748 0 1.96373 10.9258 0.101438 25.0803C4.55516 22.9431 10.0488 23.7655 13.6802 27.4842C15.9727 29.8318 19.664 30.0796 22.2497 28.0595L26.0037 25.1267C30.7215 21.4409 37.3908 21.6193 41.9048 25.5522L49.2134 31.9197L45.6725 35.9838L38.364 29.6163C35.7972 27.38 32.0049 27.2785 29.3221 29.3744L25.5682 32.3071C20.8175 36.0186 14.0356 35.5633 9.82369 31.2501C7.37448 28.742 3.36876 28.6545 0.812355 31.0533L0 31.8155C0.607944 37.8485 3.07235 43.3335 6.81326 47.6907L12.9686 42.4136C17.7486 38.3156 24.9287 38.7952 29.1212 43.4926C31.3118 45.947 35.0423 46.2521 37.6026 44.1862L38.103 43.7824Z" fill="white"/>
</svg>
